<?xml version="1.0" standalone="no"?>
<!DOCTYPE svg PUBLIC "-//W3C//DTD SVG 20010904//EN"
 "http://www.w3.org/TR/2001/REC-SVG-20010904/DTD/svg10.dtd">
<svg version="1.0" xmlns="http://www.w3.org/2000/svg"
 width="331.000000pt" height="75.000000pt" viewBox="0 0 331.000000 75.000000"
 preserveAspectRatio="xMidYMid meet">

<g transform="translate(0.000000,75.000000) scale(0.100000,-0.100000)"
fill="#000000" stroke="none">
<path d="M2400 406 l0 -166 25 0 c14 0 25 5 25 11 0 5 10 3 22 -5 77 -54 151
27 135 147 -10 71 -73 108 -124 72 -22 -15 -22 -15 -25 42 -3 55 -4 58 -30 61
l-28 3 0 -165z m140 5 c24 -45 6 -131 -27 -131 -31 0 -53 31 -53 73 0 65 55
104 80 58z"/>
<path d="M3070 406 l0 -166 30 0 30 0 -2 163 -3 162 -27 3 -28 3 0 -165z"/>
<path d="M924 546 c-10 -26 4 -48 28 -44 17 2 23 10 23 28 0 18 -6 26 -23 28
-13 2 -25 -3 -28 -12z"/>
<path d="M125 541 c-51 -23 -85 -85 -85 -157 0 -92 53 -154 132 -154 58 0 88
15 88 46 0 21 -3 25 -18 18 -9 -4 -33 -9 -52 -11 -53 -7 -83 29 -84 101 -1 92
58 142 119 102 13 -9 27 -16 30 -16 12 0 4 48 -10 60 -19 16 -94 23 -120 11z"/>
<path d="M1985 541 c-51 -23 -85 -85 -85 -157 0 -92 53 -154 132 -154 58 0 88
15 88 46 0 21 -3 25 -17 18 -10 -4 -34 -9 -53 -11 -53 -7 -83 29 -84 101 -1
92 58 142 119 102 13 -9 27 -16 30 -16 12 0 4 48 -10 60 -19 16 -94 23 -120
11z"/>
<path d="M328 468 c-20 -7 -28 -17 -28 -35 0 -21 3 -23 23 -17 12 5 38 8 57 9
28 0 36 -4 38 -21 3 -18 -3 -22 -43 -26 -25 -3 -55 -14 -65 -23 -22 -20 -26
-65 -10 -95 15 -27 74 -36 105 -16 14 9 25 12 25 6 0 -5 11 -10 25 -10 25 0
25 0 25 95 0 88 -2 98 -25 120 -26 27 -76 32 -127 13z m92 -146 c0 -38 -46
-56 -70 -27 -18 21 4 45 41 45 21 0 29 -5 29 -18z"/>
<path d="M556 459 c-47 -37 -32 -94 34 -124 49 -22 52 -50 5 -49 -17 0 -38 4
-47 8 -15 7 -18 3 -18 -18 0 -65 126 -60 149 6 15 41 -2 71 -55 96 -24 12 -44
26 -44 32 0 18 31 24 61 13 27 -10 29 -9 29 13 0 45 -68 59 -114 23z"/>
<path d="M746 459 c-47 -37 -32 -94 34 -124 49 -22 52 -50 5 -49 -17 0 -38 4
-47 8 -15 7 -18 3 -18 -18 0 -65 126 -60 149 6 15 41 -2 71 -55 96 -24 12 -44
26 -44 32 0 18 31 24 61 13 27 -10 29 -9 29 13 0 45 -68 59 -114 23z"/>
<path d="M1068 468 c-20 -7 -28 -17 -28 -35 0 -21 3 -23 23 -17 12 5 38 8 57
9 28 0 36 -4 38 -21 3 -18 -3 -22 -43 -26 -25 -3 -55 -14 -65 -23 -22 -20 -26
-65 -10 -95 15 -27 74 -36 105 -16 14 9 25 12 25 6 0 -5 11 -10 25 -10 25 0
25 0 25 95 0 88 -2 98 -25 120 -26 27 -76 32 -127 13z m92 -146 c0 -38 -46
-56 -70 -27 -18 21 4 45 41 45 21 0 29 -5 29 -18z"/>
<path d="M1356 459 c-21 -17 -26 -18 -26 -5 0 10 -9 16 -25 16 l-25 0 0 -116
0 -115 28 3 c27 3 27 4 30 86 3 76 5 84 27 94 45 20 54 7 57 -89 3 -88 3 -88
31 -91 l27 -3 0 96 c0 89 -2 98 -25 120 -30 30 -64 32 -99 4z"/>
<path d="M1595 471 c-54 -23 -82 -115 -55 -181 27 -64 126 -79 178 -26 33 33
42 117 18 165 -24 46 -86 64 -141 42z m85 -60 c15 -30 12 -97 -6 -115 -21 -22
-61 -20 -74 3 -15 30 -12 97 6 115 21 22 61 20 74 -3z"/>
<path d="M2188 468 c-20 -7 -28 -17 -28 -35 0 -21 3 -23 23 -17 12 5 38 8 57
9 28 0 36 -4 38 -21 3 -18 -3 -22 -43 -26 -25 -3 -55 -14 -65 -23 -22 -20 -26
-65 -10 -95 15 -27 74 -36 105 -16 14 9 25 12 25 6 0 -5 11 -10 25 -10 25 0
25 0 25 95 0 88 -2 98 -25 120 -26 27 -76 32 -127 13z m92 -146 c0 -38 -46
-56 -70 -27 -18 21 4 45 41 45 21 0 29 -5 29 -18z"/>
<path d="M2730 460 c-16 -16 -20 -17 -20 -5 0 9 -9 15 -25 15 l-25 0 0 -116 0
-115 28 3 c26 3 27 5 32 81 5 80 14 97 53 97 12 0 17 8 17 30 0 23 -4 30 -20
30 -11 0 -29 -9 -40 -20z"/>
<path d="M2858 468 c-20 -7 -28 -17 -28 -35 0 -21 3 -23 23 -17 12 5 38 8 57
9 28 0 36 -4 38 -21 3 -18 -3 -22 -43 -26 -25 -3 -55 -14 -65 -23 -22 -20 -26
-65 -10 -95 15 -27 74 -36 105 -16 14 9 25 12 25 6 0 -5 11 -10 25 -10 25 0
25 0 25 95 0 88 -2 98 -25 120 -26 27 -76 32 -127 13z m92 -146 c0 -38 -46
-56 -70 -27 -18 21 4 45 41 45 21 0 29 -5 29 -18z"/>
<path d="M920 356 l0 -116 30 0 31 0 -3 113 -3 112 -27 3 -28 3 0 -115z"/>
</g>
</svg>
