<?xml version="1.0" standalone="no"?>
<!DOCTYPE svg PUBLIC "-//W3C//DTD SVG 20010904//EN"
 "http://www.w3.org/TR/2001/REC-SVG-20010904/DTD/svg10.dtd">
<svg version="1.0" xmlns="http://www.w3.org/2000/svg"
 width="658.000000pt" height="115.000000pt" viewBox="0 0 658.000000 115.000000"
 preserveAspectRatio="xMidYMid meet">

<g transform="translate(0.000000,115.000000) scale(0.100000,-0.100000)"
fill="#000000" stroke="none">
<path d="M4812 822 c-9 -7 -12 -78 -10 -323 l3 -314 45 0 c42 0 45 2 48 28 l3
28 34 -30 c80 -70 207 -45 256 51 17 33 24 66 27 135 4 85 2 98 -22 147 -22
44 -36 59 -72 77 -55 26 -121 22 -165 -10 -15 -12 -31 -21 -34 -21 -3 0 -5 51
-5 114 0 95 -3 115 -16 120 -22 9 -77 7 -92 -2z m258 -307 c32 -34 41 -145 16
-194 -31 -58 -87 -65 -139 -17 -25 23 -27 32 -27 99 0 73 1 76 35 106 44 39
83 40 115 6z"/>
<path d="M6143 823 c-10 -4 -13 -77 -13 -319 l0 -314 24 -6 c13 -3 38 -4 57
-2 l34 3 3 314 c2 245 -1 316 -10 323 -14 8 -75 9 -95 1z"/>
<path d="M1856 788 c-34 -48 -6 -98 54 -98 46 0 70 21 70 60 0 39 -24 60 -70
60 -29 0 -43 -6 -54 -22z"/>
<path d="M277 786 c-76 -28 -114 -62 -148 -132 -28 -56 -34 -80 -37 -154 -10
-200 74 -314 242 -327 69 -6 164 16 186 42 12 15 18 90 8 101 -3 2 -28 -7 -56
-21 -93 -47 -179 -26 -226 55 -30 51 -30 207 0 265 44 85 127 107 220 60 27
-14 53 -25 57 -25 4 0 7 24 5 53 -3 49 -5 53 -42 71 -50 25 -159 31 -209 12z"/>
<path d="M3987 786 c-76 -28 -114 -62 -148 -132 -28 -56 -34 -80 -37 -154 -10
-200 74 -314 242 -327 69 -6 164 16 186 42 12 15 18 90 8 101 -3 2 -28 -7 -56
-21 -93 -47 -179 -26 -226 55 -30 51 -30 207 0 265 44 85 127 107 220 60 27
-14 53 -25 57 -25 4 0 7 24 5 53 -3 49 -5 53 -42 71 -50 25 -159 31 -209 12z"/>
<path d="M698 626 c-26 -7 -54 -18 -62 -26 -17 -13 -22 -75 -8 -84 5 -3 32 4
61 14 74 29 124 27 150 -6 12 -15 21 -39 21 -54 0 -27 -1 -27 -78 -33 -100 -6
-157 -34 -179 -84 -16 -40 -11 -91 13 -129 18 -26 81 -54 125 -54 34 0 95 23
121 47 17 15 18 14 18 -11 0 -26 2 -27 43 -24 l42 3 0 187 0 187 -29 30 c-48
50 -138 64 -238 37z m162 -290 c0 -26 -7 -41 -31 -60 -56 -47 -123 -26 -117
38 4 38 35 56 101 56 47 0 47 0 47 -34z"/>
<path d="M1165 630 c-59 -20 -95 -66 -95 -123 0 -65 23 -94 107 -135 90 -43
105 -62 79 -91 -24 -27 -77 -27 -135 -1 -24 11 -45 20 -47 20 -2 0 -4 -19 -4
-43 0 -60 37 -82 135 -82 119 1 180 53 172 148 -5 62 -39 98 -118 127 -67 25
-82 39 -77 72 4 33 47 45 101 30 69 -21 72 -20 75 15 3 25 -2 35 -22 48 -30
20 -129 28 -171 15z"/>
<path d="M1545 630 c-59 -20 -95 -66 -95 -123 0 -65 23 -94 107 -135 90 -43
105 -62 79 -91 -24 -27 -77 -27 -135 -1 -24 11 -45 20 -47 20 -2 0 -4 -19 -4
-43 0 -60 37 -82 135 -82 119 1 180 53 172 148 -5 62 -39 98 -118 127 -67 25
-82 39 -77 72 4 33 47 45 101 30 69 -21 72 -20 75 15 3 25 -2 35 -22 48 -30
20 -129 28 -171 15z"/>
<path d="M2168 626 c-26 -7 -54 -18 -62 -26 -17 -13 -22 -75 -8 -84 5 -3 32 4
61 14 74 29 124 27 150 -6 12 -15 21 -39 21 -54 0 -27 -1 -27 -78 -33 -100 -6
-157 -34 -179 -84 -16 -40 -11 -91 13 -129 18 -26 81 -54 125 -54 34 0 95 23
121 47 17 15 18 14 18 -11 0 -26 2 -27 43 -24 l42 3 0 187 0 187 -29 30 c-48
50 -138 64 -238 37z m162 -290 c0 -26 -7 -41 -31 -60 -56 -47 -123 -26 -117
38 4 38 35 56 101 56 47 0 47 0 47 -34z"/>
<path d="M2750 629 c-13 -5 -39 -21 -57 -34 l-32 -25 -3 27 c-3 26 -6 28 -48
28 l-45 0 0 -220 0 -220 34 -3 c19 -2 44 -1 57 2 24 6 24 7 24 152 0 144 0
145 27 170 47 43 101 44 125 1 8 -13 15 -81 18 -172 l5 -150 50 0 50 0 3 170
c2 187 -5 218 -60 258 -31 23 -111 32 -148 16z"/>
<path d="M3208 631 c-59 -19 -97 -52 -124 -107 -24 -49 -26 -62 -22 -142 5
-105 25 -145 90 -182 36 -21 56 -25 123 -25 107 0 161 29 200 110 24 48 27 64
24 137 -5 104 -28 153 -89 187 -47 26 -153 38 -202 22z m123 -91 c32 -18 49
-64 49 -135 0 -102 -30 -145 -102 -145 -69 0 -99 44 -99 147 0 65 18 114 48
132 23 13 79 14 104 1z"/>
<path d="M4408 626 c-26 -7 -54 -18 -62 -26 -17 -13 -22 -75 -8 -84 5 -3 32 4
61 14 74 29 124 27 150 -6 12 -15 21 -39 21 -54 0 -27 -1 -27 -78 -33 -100 -6
-157 -34 -179 -84 -16 -40 -11 -91 13 -129 18 -26 81 -54 125 -54 34 0 95 23
121 47 17 15 18 14 18 -11 0 -26 2 -27 43 -24 l42 3 0 187 0 187 -29 30 c-48
50 -138 64 -238 37z m162 -290 c0 -26 -7 -41 -31 -60 -56 -47 -123 -26 -117
38 4 38 35 56 101 56 47 0 47 0 47 -34z"/>
<path d="M5461 604 l-40 -35 -3 28 c-3 26 -6 28 -48 28 l-45 0 0 -220 0 -220
34 -3 c19 -2 44 -1 57 2 24 6 24 8 24 145 l0 139 30 32 c27 29 35 32 69 26 44
-7 51 2 51 59 0 65 -68 75 -129 19z"/>
<path d="M5738 626 c-26 -7 -54 -18 -62 -26 -17 -13 -22 -75 -8 -84 5 -3 32 4
61 14 74 29 124 27 150 -6 12 -15 21 -39 21 -54 0 -27 -1 -27 -78 -33 -100 -6
-157 -34 -179 -84 -16 -40 -11 -91 13 -129 18 -26 81 -54 125 -54 34 0 95 23
121 47 17 15 18 14 18 -11 0 -26 2 -27 43 -24 l42 3 0 187 0 187 -29 30 c-48
50 -138 64 -238 37z m162 -290 c0 -26 -7 -41 -31 -60 -56 -47 -123 -26 -117
38 4 38 35 56 101 56 47 0 47 0 47 -34z"/>
<path d="M1863 623 c-10 -3 -13 -57 -13 -219 l0 -214 24 -6 c13 -3 38 -4 57
-2 l34 3 3 214 c2 165 -1 216 -10 223 -14 8 -75 10 -95 1z"/>
</g>
</svg>
