<?xml version="1.0" standalone="no"?>
<!DOCTYPE svg PUBLIC "-//W3C//DTD SVG 20010904//EN"
 "http://www.w3.org/TR/2001/REC-SVG-20010904/DTD/svg10.dtd">
<svg version="1.0" xmlns="http://www.w3.org/2000/svg"
 width="188.000000pt" height="42.000000pt" viewBox="0 0 188.000000 42.000000"
 preserveAspectRatio="xMidYMid meet">

<g transform="translate(0.000000,42.000000) scale(0.100000,-0.100000)"
fill="#000000" stroke="none">
<path d="M580 290 c0 -11 7 -20 15 -20 8 0 15 9 15 20 0 11 -7 20 -15 20 -8 0
-15 -9 -15 -20z"/>
<path d="M1400 210 c0 -53 4 -90 10 -90 6 0 10 5 10 12 0 9 3 9 12 0 31 -31
78 0 78 52 0 46 -21 70 -53 64 -24 -5 -27 -2 -27 23 0 19 -5 29 -15 29 -12 0
-15 -17 -15 -90z m75 -9 c8 -26 -5 -53 -24 -49 -29 6 -27 68 3 68 8 0 17 -8
21 -19z"/>
<path d="M1770 210 c0 -73 3 -90 15 -90 12 0 15 17 15 90 0 73 -3 90 -15 90
-12 0 -15 -17 -15 -90z"/>
<path d="M105 266 c-34 -34 -34 -88 0 -121 27 -28 76 -33 95 -10 13 16 9 18
-28 15 -33 -2 -52 18 -52 55 0 39 21 59 55 52 20 -3 25 -1 23 12 -5 28 -64 26
-93 -3z"/>
<path d="M1145 266 c-34 -34 -34 -88 0 -121 27 -28 76 -33 95 -10 13 16 9 18
-28 15 -33 -2 -52 18 -52 55 0 39 21 59 55 52 20 -3 25 -1 23 12 -5 28 -64 26
-93 -3z"/>
<path d="M237 243 c-17 -16 -5 -29 23 -25 39 6 39 -14 0 -22 -64 -12 -49 -70
19 -72 l41 -1 0 58 c0 43 -4 58 -16 63 -21 8 -59 8 -67 -1z m53 -73 c0 -12
-28 -25 -36 -17 -9 9 6 27 22 27 8 0 14 -5 14 -10z"/>
<path d="M361 236 c-17 -21 -8 -43 24 -58 35 -16 32 -32 -6 -24 -25 5 -30 3
-27 -12 4 -21 53 -29 74 -11 23 19 16 47 -16 64 -37 19 -39 29 -5 22 20 -3 25
-1 23 12 -4 21 -51 26 -67 7z"/>
<path d="M471 236 c-17 -21 -8 -43 24 -58 35 -16 32 -32 -6 -24 -25 5 -30 3
-27 -12 4 -21 53 -29 74 -11 23 19 16 47 -16 64 -37 19 -39 29 -5 22 20 -3 25
-1 23 12 -4 21 -51 26 -67 7z"/>
<path d="M580 185 c0 -51 3 -65 15 -65 12 0 15 14 15 65 0 51 -3 65 -15 65
-12 0 -15 -14 -15 -65z"/>
<path d="M657 243 c-17 -16 -5 -29 23 -25 39 6 39 -14 0 -22 -64 -12 -49 -70
19 -72 l41 -1 0 58 c0 43 -4 58 -16 63 -21 8 -59 8 -67 -1z m53 -73 c0 -12
-28 -25 -36 -17 -9 9 6 27 22 27 8 0 14 -5 14 -10z"/>
<path d="M780 185 c0 -50 3 -65 14 -65 11 0 16 14 18 47 2 36 7 49 21 51 14 3
17 -4 17 -47 0 -39 4 -51 15 -51 12 0 15 13 15 60 0 55 -2 60 -25 66 -15 4
-32 1 -40 -6 -10 -9 -15 -9 -15 -1 0 6 -4 11 -10 11 -6 0 -10 -28 -10 -65z"/>
<path d="M930 230 c-40 -40 -11 -110 45 -110 32 0 65 33 65 65 0 14 -9 34 -20
45 -11 11 -31 20 -45 20 -14 0 -34 -9 -45 -20z m73 -32 c13 -20 -6 -48 -34
-48 -22 0 -35 36 -18 56 15 18 38 15 52 -8z"/>
<path d="M1277 243 c-17 -16 -5 -29 23 -25 39 6 39 -14 0 -22 -64 -12 -49 -70
19 -72 l41 -1 0 58 c0 43 -4 58 -16 63 -21 8 -59 8 -67 -1z m53 -73 c0 -12
-28 -25 -36 -17 -9 9 6 27 22 27 8 0 14 -5 14 -10z"/>
<path d="M1540 184 c0 -50 3 -64 15 -64 11 0 15 12 15 46 0 37 4 47 20 51 34
9 23 31 -15 31 l-35 0 0 -64z"/>
<path d="M1647 243 c-17 -16 -5 -29 23 -25 39 6 39 -14 0 -22 -64 -12 -49 -70
19 -72 l41 -1 0 58 c0 43 -4 58 -16 63 -21 8 -59 8 -67 -1z m53 -73 c0 -12
-28 -25 -36 -17 -9 9 6 27 22 27 8 0 14 -5 14 -10z"/>
</g>
</svg>
